/* XPM */
static char *cc605824d35d42b9f8e8ba9f82ba7074PphMXW4Qh6YMTwId[] = {
/* columns rows colors chars-per-pixel */
"100 100 31 1 ",
"  c #F79EB7",
". c #F89EB7",
"X c #F69FB8",
"o c #F89FB8",
"O c #F7A2BA",
"+ c #F9A6BD",
"@ c #FAA9BF",
"# c #FCA7C0",
"$ c #F7ADC1",
"% c #FAADC1",
"& c #FAB2C5",
"* c #FBB3C6",
"= c #F9B4C5",
"- c #FBB5C7",
"; c #FCB5C7",
": c #FBB7C9",
"> c #FCB7C9",
", c #FAB9CA",
"< c #FCB8C8",
"1 c #FDBACB",
"2 c #FBBCCB",
"3 c #FCBCCA",
"4 c #FBBBCC",
"5 c #FCBBCC",
"6 c #FBBDCD",
"7 c #FDBFCF",
"8 c #FEBFCF",
"9 c #FCC0CF",
"0 c #FEC3D1",
"q c #FEC4D2",
"w c #FEC6D4",
/* pixels */
"00990000000007700000000q07790000079790009909999977777777727,115,15711,1,:11,::>>::>----------&%%$%%%",
"90900000qq0000000000090000000000000970009990799797777779777777751115,111111::>>>>:>--------&----%&%$",
"000000000000700099990000000007000009700099997777977767797777777751111,,1,::11:::>>>>;-::---%%%%%&&-%",
"000000000009000000900000q0900000000700009009777777777777557667751,1,,1,,1,1,-:11>>>>->------%%---%&&",
"0000009000q000000000q000q0q0q00000000000900777997777797777776775155,,1111111>>,-:>:>:--------&%-&%%$",
"0000790000q000000q0000000000q00000000007907779097777777,7777777,1151111511111>>->>-->>---------&&&%%",
"00000000000q000qq00000000q00q0000q00900797099007770097767757767,1115,1571111>>>>>>>1,>>::-----&%-%%$",
"0qqq000q0000000qqq000000q0000000000000009000009777099776771,777,1477,11511111>>>>>::,::--------%--&%",
"0qq00000000000qqq000000qqq0qq00000000000077777777999977777777776,5515111551,,11:>>--1,1>---&&--%-&%&",
"00q00q0000q0q0qqq0qqqqqwqq00q00000000000q0000777797977777977745,555551>,111,111>>>->>::>>------%--%%",
"0000qqqqqqq0qqqqqqqqqqqqq0qqqqqq000000007000077779777777777774,1575111,11,,,11,11>:1,:1>::-------%%%",
"0q0000qqqqq00qqqqqqq0000000qqq00000000000007077907777776777771111111115511,,>111>>1>,:--------%--&%%",
"0q0qqqq0qqqq00qqqqqq00qqq000qqq0qqq000000090090009777776667577474,,5111151,11111>>11>:->-:---------%",
"q00qqqq0qqqq0000qqqqq0qq000qq000qqq00000000007000977797777777777666555111111111>>>:1>>;>->---------&",
"qq000qqqqqqqq0qqqqqqqqqqq00qq00qqqq0000090000700099977797777455,,,45111,,5511>>:>>11>->--------%%-%%",
"00q00qqqqq0q00qqqqqqqqqqqq0q00qqqqq00000007007009999077777777577336777,111,111>>>>>1>>>:>------&%%%%",
"0000qqqqqqqqqqqqqqqqqqqq000000qq00qqq00qq0079900990797777776757741575454551>>1>->::1>>>>--------%%%%",
"qqqqqwqqqq0qqqqqqqq00qq0000qqq000000qq0q00q079099900777777777777777575556511>:>;>>>1>>:1--------%%%%",
"qqqqqqq0qq0q00qqqq000qq00qqqqq000q00000000qq00099777977777777777767777557751>:>11>>>->>>-::--&%%--%%",
"0qqqqqqqqq0qqqqqqq0qqqqqqqqq00000qqqq0000090000070999777777777777777775174111,111:>:;>---------%%%%%",
"qwqqqqqqqqqwqqqqqqqqqqqq0000qq0qqqqqq0000090000999007079977777677775775556,,1>:,,:>>>>>>--&---%%%%%%",
"qqq00qqqqqqqqqqqqqqqq00q0qqq0qqqqqq0q000qq0000900097700797777777777157,111111:1,111>>::>>--------%%%",
"qqqqqqqqqqq0qqqwqqqqqqqqqq00000q0qq070qqqqq00790000979009777777775775751111111>11>>11--:>-----;-&%&&",
"q0qqqqqqqqqqqqqqqqqqqqqqqqq0q00000000q00q000077990997900767775577777475115511>11>11>:>:-->>-----%%&%",
"0qqqq0qqqqwqqqqqqqqqqqqqq00qqq000qqqqq007000077000000097977777777775157711151111>>:>->>>::-----&%--%",
"0qqqqq0qqqqqqqqqqqqqqqqq0qqqqq0qqq000000790000079099999797777757777511,571111,11:>>>:>>>------%-%%&%",
"0qqqqwqqqqqqqqqqqqqqqq00qqqqqqqq000000q00700000790777999977777777347,4511111>111>>>>:1>>:-----%%%--%",
"qqwqqq00qqqqqqqqqqqqqqqqqqqq000qqqqqqq0000000099799777997776777777754451111111,1>>>>>:>>----%-%%%--%",
"0qwqqq0qqqqq0q0qqqqwqqq0q0000000qq0qq00q000q009977707797797777776751555511111111>>>>-:-;----%-%%%%%%",
"qqqqqqqqwwqw0qqqqqqqqqq0qqqqqqqqqqqq0000000977779779979997777765775511114111151:>1:>>-------%%-%%%%%",
"qqqq0qqqqqqwqqqqqqqqqqqqqqqq0000000qq00000007709000997999997777435777511,111111,:>>>>----------%%%%%",
"qqqq0qq000qqqqqqqqqqqqqqq00000000q0q000q09097709007779779972317773677751,:111:>1,1>>>>------------%-",
"00qq0qq0qqqqqqq0qq0qqqqqqq0q0000000qq000009700090977979797773771331551511>1>:1>1,>>>---;---&---%%%%%",
"00q0qqqqqqqqq0q0qqqqqqqqqq0000qqq00q00q000707009977779997777773113157151>11>1,1,1>>>:-----------%-%-",
"00q000qqqqq0qqqq0000qqqqqqqqqqq00000000090700q09977777797737771113775111111>:111>>:;--------------%%",
"00qqq000qqq0qqqqqqqqqqq0qq0q00q0q00009000907009097797777777777333377511111::>>>>>>>>;------&&--&%%%%",
"000qq00qq00qqqqqqq00q0qqq0q00000000900007779079096797776777767313111511111::>;>1>>>1-;--------%---%%",
"000qqq0qq0q000qqqq0qq0qqqq0000000q000009970000979779777777777711,77511111111>:1>>::>-->--------%&--%",
"000qqqqqq0qqqqqqq0000qq00q0000q00000q090000009999777777667777111115111,1111>>>>>-->>:>:--------&%--%",
"0000q0q0qqq0000q0000qqq0000000000q00q09000000997977677777777711155,11111111>:>;>>>:>--------%--%%&&%",
"0000q0000qq0qqq00000qqqqq0000000000007000000099777777715477775115111111111>:::>>>>:--------&----%%%%",
"0000q00000qqq0000000q00q0000000000000000070097777777511575,,71111511,1111:::>,>>>--------------&%%%-",
"0000000000qqq00000qqq000000000000700000009799996727755577445555111171111,:>>::,>>>-;--------&%&--%%-",
"000q000000000q0000000000000000000700q0009799777777777577,,445515,111,:1111>1:>>>>------------%%%&%%%",
"090qq0000000909000000000000099000770000099799777377775711,,,3,,5111511,1111>11-:-;--------&-&-%%&&%%",
"990q00000000099000q000090009999007799000099999773277777771,1336515,,11:11,1:11>::>:::---------%%-&&%",
"70000q00000q0000000009000009099777779999997797777622777756,,,14515111111>1111:>>>---------%--%%%%%%%",
"700q0000090q0000090799900099999777799999977797777772,7771,,11,4431,1111111>:>>:->>--------%--&%%%%%%",
"700q000q090q000000999900007709077779907997799377777,77755115754531,11>>11>>>1:>-::---&&&-----&&%%%%%",
"79900000090q0999000900009077997777770079777993777777777155777741311111>11>>>11>>:>---&----&%%%%%%%%%",
"97790000090099779990000079770967779709977777777777777671575755,,11,,11111:11>:>>:-----&----&%%%%%%%%",
"999000009900099000990000007797999999999777777777773,37777775511111,,,11>>>>>>->>;-------%%-&%%%%%%%%",
"9999099999009909099990900000799999999997777777777731777777771111111,1111>>>>>->----------&%%%%%%%%%%",
"79999099999990999999999900009997777979977777777767777,,57,77111111>;1:1>>>;>>>:>>;------%&%%%%%%%%%%",
"797000999790900979999799090999977779979977777267176771,,37741111111111:>>>>--:>:;--------%%%%%%%%%%%",
"7790099999007907709977999979099777777737777777777767775,151111711,111111->>->>----------&-&%%%%%%%%%",
"799999799700979999999999677999999777777997777777777747757111,,71111111>,,>>>;;;:-------%%&-%%%%%%%%%",
"777797997999099999997999779979977777977277777772677777471111,1111111,11,:>;;>:----;--------%&%%%%%%@",
"7779099779990999909977797799999777799977777,737777177,77511311111111,1>::>>-;>>---&----&--&-%%%%%%%@",
"777009997777099999997799977779799777797777772377717771775,17331>1>1>>>:>1>>>>>;-----&----%%&%%%%%%%%",
"779999977999999999997997777779997777697337777767757775111151,,:,,1111>111>>->>---&-----&&%%%%%%%%%%%",
"777779777900999999777777777777773277797313777747776,7,71115111111111->:>>--->:--:-%%------%%%%@%%%%%",
"777777777700909977777797977777737779777337731,1,333,71155,1111:111111>->>->->>-----&--%---%%%%%%%%%@",
"7777777979097997777779977997777777762727772,7,751,3,,111511111111>>1>>>>>>------------%--%%%%%%%%%%%",
"7779977677997997777737777797777777777777,72,77774,11,,1151,1>>111>>1>>:::::-----------%%%&%%%%%%%%@%",
"77737777977777677773277777977777,777777755,577757,5111,111:111>>>>1>>11>->:----------&--%%%%%%%%%%%%",
"7762777797767777997777777277777777777777777677455>1111,11>11111>>>>>>1>-:-------%--%-%&-&-%%%%%%%%@@",
"2277777777777677977277777777767777775577577755511155111111:111111>>>>>>>:----------%%%%---%%%%%%%%@%",
"277,977776777799976,377777577775757755555,515111555111111:11,11>>1>>>---::--&----&--%%%%%%$%%%%%@+@@",
"774776777777777777777777777577777547777574,47411,5111111>11111:->1>11>>>:--------&---%%%%%%%%%%%@@@@",
"7729777777773377777777777775777,7777651776447,1157,1511111>11>>-;>>>>>:-------------%%%%%%%%%%@@@@@@",
"73,77677777777777776777777744771777315,56411511111111111:,1>1:>>>>>>:>-;---%---%%---%%%%%%%%%%%%@%@@",
"733,6757777731736,77777774477777777,1155411515111111111::1>>>>>>>>>::------------&--%%-%%%%%@%@@+%@@",
"6771,677576771717777656776457777776,177771115551111,11111,>>>>>>->---------------%%%%%%%%%%%%@+++@@@",
",5,,,67777646774477777667455,7775157677773,1>111511111>,1-;>>>>;:------------%&---%%%%%%%@@@@@+@@@@@",
",,,,,67475,5767733777766755577771116677777,11411111>1:::1:>>>>1>-----:---------%%-%%%%%%%%%@@++@%%@+",
"1,,167774776774737367712771,457,51164545115,1111>>1,11>>>>>>>>>>---------&&----%&%%%%%%%%%%%%@@+%%+@",
",457577465767757311777,,7751155155,47115155511111111>1:::---;>>---------%%-%%%&%%%%%%%%%%%%%@@++@@+@",
"1517711557667477751,1,751,1,,51>11511,451151111,>>:-:>>>:------:--------&&-&%%%&%%%%%&%%%%%%@@@+@+@@",
",5,6,11,,,7755,1671,27,5515555,11111115,,11111>1-::-:>::---->--------&----%%%%%-%%%%%%%@%%%%@@++++++",
",,,,4,,4,5515114471175515,,115,1111111,,:11,,1:::>>>>;>>----&-------%%-&&&%%%&-%%%%%%@%%@@@@@@@@++++",
"1,,111,,,45554,,477111151,111111>1115111111::>,1>>>>--->>--------------%%%-%%%%%%%%%%@@@@@@@@+++++++",
":,11,,,5,11114,,151,1111,,11,,,11111111>11>::11:::>>:->-:----&------------&-%%%%%%%%%%@+++@+@+O++OOO",
"11,1,,,411511,11,,,11,115111111,1>,11>1>>::,1:>>>>>>>-;;>:------------%----%&%%%%%%%%%@@@%@@+++++OOO",
"11,,:,,1155,1,,5,,,1,1,4111,,1111>111>>->>>>1>11>>>:--:>:--------%%----%%&%#%%%%%%%%%@@@+@%++++O++O+",
":>,,::,1:1111115,1111,,,,,11,:111>111:::>>>>>>>::>:-------------%%%-&-&%%%%%%%%%%%%%@@@@++@@@@+O++OO",
"::>1,:,,::,111,1,1111,,151111>:::1>>:::>>>>>;------:---------------%%%%%%%%%%%@%%%@+@@@@@+++@++OO++O",
",,:1,:1,1,1111:1,,::,,111,,,>>,,>:>>>->1>:::::--:-------------%%-%%%%&&%%%%%%%%%%%@@+++@@@+@@+++OOO+",
",,:>,:>,11,111:11,5,::1,>,,>>>1::->1>>->>>>>>>---;------%-%%---%%%%%%--%%%%%%%%@%@@@@@+@@@@O++++OOOO",
">:-::,,,1,::1,,11111,1:::,,1>>>:::->:;----;---------------%---&---%%%%%%%%@%%%%@@@+@@%@+@++++O++OOOX",
"->>::,:>>:::::1::1>>11::,:>>>>>>,>>>----:-----:-----------&&-%&---%%%%%%%%%%%@%%%@@@@%+++++++++OOOOX",
":>;-,,:1>:::>1>::>:>1>::,::--->>:-:----->-----:--------%--------%%%%%%%%%@@%%%@@@@@@@@+++++++++OOOOO",
"----:::1>----11::>>>:>>>,:::::--:-:-------------------&-----&%%%@%%%%%%@@+@@@@+@#@+@+++++++O+OOOOOOX",
"------:1:----:>>::->>>>--:--:>--::>----------&-%-----&%&%&&%%%%%%%%%%%@%%@%@@@%+++++++++OOOOOOXOOOO ",
"------:-------:----:->:>->:->>----------;-----------%%%---%%%%%%%%%+@+%%@%@++@+++@@@++OOOOOOOOOOOO o",
"-:-----:-----;>-:->--->>--;-----:------;;--&----&-%%%%%&-%-%%%%%%%%%@+%%@@@@@@+++++++++OOO++OOOOXXXX",
"--------:----:::--------------------------%%------&%%%%%%%%-&%%%%%%%%@@@@@+@@@++++OOOOOOOOOOOXOO    ",
"---:>-:---::-------:------:--:-----:-----&%%%%--%-&&%-%%%&%%%%%%%%@%@#@@@@@@@@@@++O++OOOOOOOOOOX    ",
"---->>:--->------------------;-------------%&&&-%%-%%&%%%&&%%%%%%%+@@@@@@+@@@++@+++O+++OOOOO OXX .  ",
"----:>>---::--------;----:--:----->;-------%%%%-%%%%%$%%%&&%%%%%%%%%%@%@@@@@@++++++++O+OOOXooXOOX.  "
};
