/* XPM */
static char *_548e0fdeaba47e5bee9e545ed7390ceCqVxFSDBu2rUT04X[] = {
/* columns rows colors chars-per-pixel */
"100 100 54 1 ",
"  c #F6D86D",
". c #F7CF73",
"X c #F7D172",
"o c #FE6EBE",
"O c #FD77B7",
"+ c #FD7BB4",
"@ c #FE73BB",
"# c #FD7ABA",
"$ c #FF66C4",
"% c #FF6CC1",
"& c #FE74C2",
"* c #FE79C4",
"= c #FB969F",
"- c #FA9D9A",
"; c #F9AD8E",
": c #F9B18A",
"> c #F9A494",
", c #F9A990",
"< c #FC8DA6",
"1 c #FC84AD",
"2 c #FC89AA",
"3 c #FB93A2",
"4 c #FC82B2",
"5 c #F69FB8",
"6 c #F7A7B6",
"7 c #F7AAB2",
"8 c #F7A4BB",
"9 c #F9A6BD",
"0 c #F7A9BE",
"q c #F9A9BF",
"w c #FD84C2",
"e c #F7ADC1",
"r c #F9ADC1",
"t c #F9B0C3",
"y c #FAB0C3",
"u c #FAB2C5",
"i c #FAB5C7",
"p c #FCB5C7",
"a c #FBB7C8",
"s c #FCB7C9",
"d c #FBBBCA",
"f c #FBBACB",
"g c #FCB9CB",
"h c #FCBCCB",
"j c #FBBBCC",
"k c #FDBBCC",
"l c #FBBCCD",
"z c #FDBFCF",
"x c #FCC0CF",
"c c #FDC1CF",
"v c #FCC1D0",
"b c #FBC5D2",
"n c #FFC4D2",
"m c #FFC5D4",
/* pixels */
"vvvvcvvvnvnvcvvccvvvvvvcvnnczvvvnvvccvcvvvczccccczzzzzzzlzzzzfgkgffgzgffggaggfaassaaaaiuuuuuuuuurree",
"vccvcvvvnvnvvvvvvvvvccvcvnvcvvvvvvvvvvzvvvcccvcczcczzzzlzczzzzzzzzkggggfgfffgaaasssaasuiiiuuiruuuuur",
"vvvvvnvvvvvvvvvcvvccccvvvvvvvvvvvvvvvczvvvzcccczzzzzzzllzczzzzzzzzzggggfffgfaffsasisssiiiiiiiuyrryru",
"vvvvvvvvvvvcvzvvvvvvzvvvvvnvcvnvnvvvvcvvvvzvvczzzzzzlzlzzzzlzzzzzzggggffgafgggaafgasssaaaiiiuuyyruur",
"vvvvvnvvvvvvnvvvvvvvvvnvvvnvvvnvvvvvvvvvvvcvvczczczzzzzczzkzzzljzzgglgfkggggggagsaissasaiuiiuuuuryur",
"vvcvvvccvvcvnvvvnnvvvvvvcvvvvvncvvvvvvvvcczvczzcvczzlczzzfjzzzzzzjkgkkgggkgfggfgsisssiasauiiuiiuuuru",
"vvvvvvvvvvcvnnvvvnnvvnvvvvvnnvnvvvvvvncvvzczvccvvczzzvvzzzzzkkzzljffggggglkfggsfssssssffsaaauisuurru",
"vvvvnnvvnvvvvvcvvnnnvvvvvvnvvvvvvvvvvnvvvvzvvvvvczlzvvczzlzzkkjzzzffzkfggfgggfgaasssiiffssiiiuiuuuyu",
"vvvnvvnvvvvvvvcvnnnvvvvvvnauuuuuuuuuuuuuuuuuuuuuuuuuuuuuyruuyyyuyyrrrrrrrrakgffggfssiusgasaiiuruuyyu",
"vnvvnvvnvvnvvvnvnnnvnvnnnnr88888888888888888888888888888888888888888888888uggfggggggaisagssiuuuuuuru",
"vvvvvvnnnnnnnvnnnnnnnnvnnnr88888888888888888888888888888888888888888888888igfggggggssafaassiiiiuuyuu",
"nnvvvvvvnnnnnvvnnnnnnnvvvv088888888888888888888888888888888888888888888888igfgaggfgsggaaiiiiiiiuuuuu",
"nvvvvnnnnnnnnnvvnnnnnnvnnv088888888888888888888888888888888888888888888888iggfggggsssggaiisiiiiuuyuu",
"nnnvvvnnnvnnnnvvnnnnnnnvnn088888777777777777777777777777767666688888888888uggfgggssssfgasasiiiiuuuuy",
"vvnnvvnnnnnnnnnvnnnnnnnnnn088888322224444444444++##########@@@@@&&&&*88888ufkkgsasssggsissiiiuuiiuyu",
"cvvvnvvnnnnnvnvnnnnnnnnnmn088888+$$$$$$$$$$$$$$$$$$$$$$$$$$$$$$$$$$$&88888igfggggssgssssssasauusiurr",
"vvvvnvnnnnnnnnnvnnnnnnnnnnr88888+$$$$$$$$$$$$$$$$$$$$$$$$$$$$$$$$$$$&88888akkggfgiisissassaiiuiuuuyy",
"nnnnnnnnnnnnvnnnnnnnnvnnnv088888@$$$$$$$$$$$$$$$$$$$$$$$$$$$$$$$$$$$&88888ajggggapasasgssaaiuuuuuuyy",
"nnnnnnnnnvnnvnvvnnnnnvnnnv088888@$$$$$o+1111444++++++@@@oo%%%$$$$$$$&88888alkgsffsgsssspsiaisiuuuuuu",
"nvvnnnnnnnnnvnnnnnnnvvnnnv088888@$$$$$O3+++OOO@@@@@@@ooo%%%%@%$$$$$$&88888alkggffggfasissiiuiuuiuyrr",
"vnnnnnnnnnnnnnnnnnnnnnnnnn088888@$$$$$+<$$$$$$$$$$$$$$$$$$$$@o$$$$$$&88888izjfggsgfasaasssiuuyuiurrr",
"vnnnnvvnnnnnnnnnnnnnnvnvvn088888@$$$$$+<$$$$$$$$$$$$$$$$$$$$@o$$$$$$&88888ugggfasgasggsfisaiuusuuuuu",
"vvnnnmnnnnnnnnnnnnnnnnnnnn088888@$$$$$+2$$$$$$$$$$$$$$$$$$$$@o$$$$$$&88888ugggggsggssssaiissiiuuiuuy",
"nvnvnnnnnnnnnvnnnnnnnnnnnnr88888@$$$$$+2$$$$$$$$$$$$$$$$$$$$@o$$$$$$&88888igkgggsggssgaiaiiasiuuuuur",
"vvnnnnnnnnnnnnnnnnnnnnnnnnr88888@$$$$$+2$$$$$$$$$$$$$$$$$$$$Oo$$$$$$&88888iggkgggggsaaiisssssiuuyuyy",
"vvvnnnnnvnnnnnnnnnnnnnnnnn088888@$$$$$+2$$$$$$$$$$$$$$$$$$$$+@$$$$$$&88888agggggagasssiasssiuuiiuurr",
"nvvnnnbnnnnnnnnnnnnnnnnnvvr88888@$$$$$+2$$$$$$$$$$$$$$$$$$$$+@$$$$$$&88888uggggsggsagsisssssiiyiurrr",
"nvnnnnmnvvnnnnnnnnnnnnnnnnr88888@$$$$$O2$$$$$$$$$$$$$$$$$$$$+@$$$$$$&88888ugfggggfssssssisiiuuyyrrru",
"nvvnmnnnnnnnnnvnvnnnnnnnnnr88888@$$$$$O1$$$$$$$$$$$$$$$$$$$$+@$$$$$$&88888uggggggggssssppiiuuiuruurr",
"nnnnnnnnnnnnnnnnnnnnnnnnnv088888@$$$$$@1$$$$$$$$$$$$$$$$$$$$+@$$$$$$&88888iggggggfgssappuuuuuuuryurr",
"vnnnnnnnnnnnnnnnnmnnvnnnvn088888@$$$$$@1$$$$$$$$$$$$$$$$$$$$+@$$$$$$&88888uggfgggffssssiiuuuuuyuuure",
"mnnnnnvnnvvnnnnnnnnnnnnnnnr88888@$$$$$@1$$$$$$$$$$$$$$$$$$$$4@$$$$$$&88888uiggggagfsssssiuuuuuuuyuuu",
"nnnvnnvnnvnnnnnmnvnnvvnnnnr88888@$$$$$@+$$$$$$$$$$$$$$$$$$$$1@$$$$$$&88888igssaaasfgssipuisiuuyiuuyr",
"nnvnnnnnnnnnnnnvnvnnvnnnnnr88888@$$$$$@+$$$$$$$$$$$$$$$$$$$$1O$$$$$$&88888usgsagfsggsfaasiiiiuuuuyyu",
"nnvvvvvnnnnnnvnvnnnvvvnnnnr88888@$$$$$@+$$$$$$$$$$$$$$$$$$$$1+$$$$$$&88888ugggiggggssaiiiuiiiiiuuuuu",
"vnvvvnnvnnvnnvnnnnnnnnnnnv088888@$$$$$@+$$$$$$$$$$$$$$$$$$$$1+$$$$$$&88888uggaasssssssaiiiiuuuuyuurr",
"vnvnnnnvvnnvvnnnnnnnvvnnnnr88888@$$$$$@+$$$$$$$$$$$$$$$$$$$$1+$$$$$$&88888ugffgaisssssaipaiiuuyyuyuu",
"nnvvvnnvvnnvnnvnnnnnvvnvvv088888o$$$$$@+$$$$$$$$$$$$$$$$$$$$1+$$$$$$&88888usaaaaasggiaaipiiipuuuuuyy",
"nnvvvnnnnnnvvnvnnnnvvvvnnv088888o$$$$$oO$$$$$$$$$$$$$$$$$$$$1+$$$$$$&88888ugggssgsaiassssiuiiuuuuure",
"vvvvvvnnvvnnnnvvvnnvvvnnnv088888%$$$$$oO$$$$$$$$$$$$$$$$$$$$2+$$$$$$&88888uggssspsaaaapiauuiiiuuuyrr",
"vvvvvvnvvvnnnnvnnvvvvvnnnn088888%$$$$$oO$$$$$$$$$$$$$$$$$$$$2+$$$$$$&88888uggasasssssauuiiuuuuyuuurr",
"vvvnnnnvvnvvnnnvvvvvcvvvvv088888%$$$$$oO$$$$$$$$$$$$$$$$$$$$2+$$$$$$&88888igaasgfsssiiiisiuiiuuuyryr",
"vnncvvnvvvvvnnvvvvvvnnnvvv088888%$$$$$oO$$$$$$$$$$$$$$$$$$$$2+$$$$$$&88888uappaaafssuspaipuuuuuryuur",
"cvvvvnvvvvvvnnvnvcvvnnvvvv088888&$$$$$@+$$$$$$$$$$$$$$$$$$$$2+$$$$$$&88888ugsssfssiaiiipiiuuuuuurruy",
"vvvcvnnvvvvvvvvvccvvvvvvnv088888%$$$$$@+$$$$$$$$$$$$$$$$$$$$2+$$$$$$&88888ugggagsiiiuuuipiuuuuuuyrrr",
"vvvcvnnvvvvvvvccccvvvvcvvc088888%$$$$$@+$$$$$$$$$$$$$$$$$$$$2+$$$$$$&88888ufssagsaissiiiiuiuuruuuruy",
"vvcvvvvnnvvvvnvvvvcvvnvccv088888%$$$$$@+$$$$$$$$$$$$$$$$$$$$2+$$$$$$&88888uggassissiiuiiuuuuuruuyrrr",
"czzvvnvvvvvcvnvvvvcccvvccv088888%$$$$$@+$$$$$$$$$$$$$$$$$$$$2+$$$$$$&88888ugggsgaiissaiiiuuuuuyurrrr",
"vczvvnvvvnvzvnnvvvvcccccvv088888%$$$$$@+$$$$$$$$$$$$$$$$$$$$2+$$$$$$&88888agpissassssuuuuiuuuuiuyrrr",
"vvccvvvvvnvcvnvcvccvcccvvv088888o$$$$$@+$$$$$$$$$$$$$$$$$$$$2+$$$$$$&88888ugssggaspssiuuuuuuururrrrr",
"cvzzcvvvvnvcvvcccccccvvvvc088888o$$$$$@3<<333===------------;4$$$$$$&88888usssgsassiiiiuiuuuuuyrrrrr",
"cccczvnvvvccvvvzzccccccccv088888o$$$$$%@@@@@@@OO+++++++++++++%$$$$$$&88888usssssassaiiiuiurruurrrrrr",
"ccccccccccccccccvvvvcccvvv088888o$$$$$$$$$$$$$$$$$$$$$$$$$$$$$$$$$$$&88888usssgsisipuiiuuuyuurrrrrre",
"cccccvvvvccvccvcvzccczcvvc088888@$$$$$$$$$$$$$$$$$$$$$$$$$$$$$$$$$$$&88888ussssspiiuauuuuurrrryrrryr",
"zzzccccvcclccvcccczczczzcc088888@$o2<%$$$$$$$$$$$$$$$$$$$$$$$$$$$$$$&88888usspipssapiuiuuuuyrruyrrrr",
"zzczcvvccccccczvcczczvzzzc088888@$2. ,>>@$$$$$$$$$$$$$$$$$$$$$$$$$$$&88888uisiiiiaiuiiuuuuuyyrrrrrrr",
"czzccccczcczvcczvccccccccc088888@$2X <22o$$$$$$$$$$$$$$$$$$$$$$$$$$$&88888uassspsasiupuiuyryuurrrrrr",
"zzczzzvzcczzcccccccccczccc088888@$%1+$$$$$$$$$$$$$$$$$$$$$$$$$$$$$$$&88888ussiaiiiiupiuuuuuuurrur0rr",
"zlzzzvccczczvvvvcccczvzzzz088888@$$$$$$$$%%%$$$$$$$$$$$$$$$$$$$$$$$$&88888ussaagsipiuuuuuuuuururrrre",
"zzzzzvvcczzzzzvzccccczzzcc088888@$$$$$o1++++++++OO@@@@@@@oooo$$$$$$$&88888uassissiiuuyuuiiuuyyrrrrrr",
"zzzzcvvccczczzcccccccczzcz088888@$$$$$+2$$$$$$$$$$$$$$$$$$$$o%$$$$$$&88888ugiapsiiuiuuuuiuurrrryrrrr",
"zzzczzzczzzccccccccczczczz088888@$$$$$+2$$$$$$$$$$$$$$$$$$$$o%$$$$$$&88888usiiisaiipuuuuuuyyrrrrr0re",
"zlzzzzzzzzczvccvcvcczzlzzz088888@$$$$$+2$$$$$$$$$$$$$$$$$$$$@o$$$$$$&88888uiiiigiiiiuyuuuuuuyurrrrrr",
"zzzlzczzzzzzczzczzlzzzzzcz088888@$$$$$O1$$$$$$$$$$$$$$$$$$$$@o$$$$$$&88888uiasspuupuuuyuuruurrr0rrrr",
"zkzzzczzzzzccczccczzzhhzzz088888@$$$$$@1$$$$$$$$$$$$$$$$$$$$Oo$$$$$$&88888usiiiuuiuuuiuiurrryrrrrrqr",
"llzlzzcczzzzzzzzzzzzzhhzzh088888@$$$$$@1$$$$$$$$$$$$$$$$$$$$+@$$$$$$&88888uisiiuuiuuuuuuyrrrrrrrrrrr",
"zzzzzfzzzzczzhhzlzzzzzlzzz088888@$$$$$@+$$$$$$$$$$$$$$$$$$$$+@$$$$$$&88888uaaiuiuiuuuururyuyrrerrrrr",
"lzffzzzlzzzzzzzlzzzczfzzzz088888@$$$$$@+$$$$$$$$$$$$$$$$$$$$+@$$$$$$&88888uiuuuuuiuuiurrrruuurrrrrrr",
"fffzzlczzzzlzzzlvvczhfhzzz088888@$$$$$@+$$$$$$$$$$$$$$$$$$$$+@$$$$$$&88888usiuuuuiuuiuruuurrerrrrrqq",
"flzzzlczzzzzzzzzzzzzllzzzz088888@$$$$$@+$$$$$$$$$$$$$$$$$$$$4@$$$$$$&88888uiiiuuiuuuuuuryrryrrrrrr09",
"gjzzzzzlzzzzzzzzzzzzzzzzzz088888@$$$$$@+$$$$$$$$$$$$$$$$$$$$1@$$$$$$&88888uiuuruuuuuyuuyrrrrrrrrrr00",
"lfzzjzzzzzzzzzzfzzzlzlzzzz088888@$$$$$oO$$$$$$$$$$$$$$$$$$$$1O$$$$$$&88888uuuuyuuuuuuuyrrrrrrr0r0r00",
"kzhhhfllkzzlzzhhzzzlzlzzzj088888@$$$$$o@$$$$$$$$$$$$$$$$$$$$1O$$$$$$&88888yuuuuuuurruuuryurrrrrrrr0q",
"flzhzfzzzzkzzzgzhfzzzclgzz088888@$$$$$o@$$$$$$$$$$$$$$$$$$$$1+$$$$$$&88888ruuipauuuyryrrrrrrrrr009q0",
"fflzhfflzzzzlzzklfzzfllzlj088888@$$$$$o@$$$$$$$$$$$$$$$$$$$$1+$$$$$$&88888yuuuuuuuurryrrrrrrrrr00099",
"fjjjjfjjlzzzljlzzfzzzczzll088888@$$$$$o@$$$$$$$$$$$$$$$$$$$$2+$$$$$$&88888ruuuuurryuurrrrrrrr000qq00",
"ljfffffljflzjlzzkzzhlzzzgl088888@$$$$$o@$$$$$$$$$$$$$$$$$$$$2+$$$$$$&88888ruuuuuuuryrrrrrrrrrr0r000r",
"lkgffgzjkjjlllzzjzhhfzzzgf088888@$$$$$o@$$$$$$$$$$$$$$$$$$$$2+$$$$$$&88888ruuuyyuurrrrrrrrrrrrr00990",
"fjfjzlgkgjkkjjzzjlzfkzzggf088888@$$$$$oO$$$$$$$$$$$$$$$$$$$$2+$$$$$$&88888ruuurrrrrrrrrrrr0rrrrq0990",
"ffgggzzggggglzjlzzzzfffjjg088888@$$$$$@+$$$$$$$$$$$$$$$$$$$$2+$$$$$$&88888ruuuuryyrrrrrrrr0r0rr00990",
"ffffflfgfffkzkgkfflkgfhjfk088888@$$$$$@+$$$$$$$$$$$$$$$$$$$$2+$$$$$$&88888rurrryrrrrrrrrrr9r00r00999",
"afffffjffjfjggffffjzkgkgkg088888@$$$$$@+$$$$$$$$$$$$$$$$$$$$2+$$$$$$&88888rurrrrrrrrrrrr9r0900009999",
"gffffggffffgggffjffzkgfggg088888@$$$$$@+$$$$$$$$$$$$$$$$$$$$2+$$$$$$&88888ryrurrrrrrrrr09900q0009999",
"ffaafgffgzgkkggffffjgggfgg088888o$$$$$@333====--->>>>>>,,,,,:+$$$$$$&88888ruuuerrrrrrrrrr000r9999899",
"aagafggaffggkgfjggfffggfag088888o$$$$$$$$$$$$$$$$$$$$$$$$$$$$$$$$$$$&88888ryrrrrrrrrrrr00q00r0099999",
"aasgffafgggggfgfjzfffggfff088888%$$$$$$$$$$$$$$$$$$$$$$$$$$$$$$$$$$$&88888rrrrrrrrrrrrr0q09900990999",
"aaaafgaafgafffgggggggaffff088888%$$$$$$$$$$$$$$$$$$$$$$$$$$$$$$$$$$$&88888rrrrrr0rrrr000q00999900989",
"ifaaagffffgafgfgfgfgasfffg088888%$$$$$$$$$$$$$$$$$$$$$$$$$$$$$$$$$$$&88888rrrrrrrrrrr999000009099898",
"gaffasaaafggfgfgagfgffafgf088888%$$$$$$$$$$$$$$$$$$$$$$$$$$$$$$$$$$$&88888rrrrrrr00rr000990909909988",
"aafasagaaaffafaaaggfffaaaar00000************************************w89989rrrrrrrrrq0000r00009898898",
"aissaaafaasgaafagfggggggaaaffgspaaafassiuiauiiuaiiiiiiiuuuuuyyuurruuyrrrrrrrrrrrrr000900r99999998888",
"aipspaafaasaaaaasaasasgaaafaaaasssasaaiuuiaiiuuupiiiuuuuuuuuyyuuyuuuyrrrrrrrrrrr0r000000099998998888",
"auaiuiaaassaiaigsaasisaasafaaiaaaiaiaiiiuuiuiuuuppiuuuuuuyuyuuuyryrerrrrrrrrqqrrr0000090999998898888",
"aiiuuiaiiasiaiiassaaissssaaapiaaiiasaiiuuuiiiiusiuuuiuuuuuuyuyrrrr0r00rrr0q0q0q099qq9999999898888888",
"iiiiaiiiaassiiisaaaiiissaaiiiiiaiuiiaiuuiiiuuuuuuyuiiyurruuyyrrrrrrrrr0r0rrr0900009q0999889888888855",
"iiiiaiiiaiiiiuuiaiaasaiiasipsipsiuiiiiiiiisiiuuuuuuuuurrrruurrrrrrrrr0999r0r009009900099988888888858",
"uiuiiiiiiaiiuiisaiiiaiuiiauuiiuiiuiiuauiiiuuyruuuuyuurrrryurruryrrryrr00qrq0009099999899995889858855",
"iiuiiiiiiiaiiiuiiiiiuiuuuuuiiuuiiuiiiaiiiuuurruuuuuyurrrrrrrrrrrrrrrrrrqq0q0009909999888888888855555",
"iiiiaassaauiiaaiiiuuusiuiuuiaiisuuuiiiiiiiuuyyruruyyurruyrrrurrrrrrr0000q909900990999899888888588555",
"iiuuiuassiisaiiiaiiiiupuuuusiuiauuiiiiiiuiuuuuuuyyururrrerryuryrrrrr0000r000090999999999898858555555"
};
